<svg xmlns="http://www.w3.org/2000/svg" width="180" height="46" fill="none" xmlns:v="https://vecta.io/nano"><g clip-path="url(#A)"><g fill-rule="evenodd" fill="#9c1311"><path d="M0 .002h21.268v3.709H3.705v38.428h17.563v3.709H0V.002zm24.306 0h21.268v45.846H24.306v-3.709h17.563V3.711H24.306V.002zM8.003 9.943h13.265v4.97h-7.707v3.042h13.561a2.31 2.31 0 0 1 2.297 2.3 2.31 2.31 0 0 1-2.297 2.3H13.561v1.781 1.261 4.08 6.38H8.003v-6.38-19.659-.074zm16.303 0h3.112c5.41 0 9.856 4.451 9.856 9.867 0 3.783-2.001 7.789-5.187 9.422l3.483 6.751h-6.225L26.9 30.789h-5.558v5.193h-5.039v-6.38-4.08h10.301c2.89 0 5.336-2.374 5.336-5.341 0-2.893-2.371-5.341-5.336-5.341H24.38V9.87l-.074.074z"/></g><g fill="#000" stroke="#373435" stroke-width=".288"><path d="M64.99 2.006h-9.411a.35.35 0 0 0-.37.371V17.14a.35.35 0 0 0 .37.371h1.556a.35.35 0 0 0 .37-.371v-5.341H64.1a.35.35 0 0 0 .371-.371v-1.335a.35.35 0 0 0-.371-.371h-6.595V4.009h7.485a.35.35 0 0 0 .37-.371V2.377a.35.35 0 0 0-.37-.371zm9.485 15.727c3.927 0 6.595-2.374 6.595-6.677v-8.68a.35.35 0 0 0-.37-.371h-1.556a.35.35 0 0 0-.37.371v8.828c0 2.522-1.482 4.377-4.298 4.377s-4.372-1.855-4.372-4.377V2.377a.35.35 0 0 0-.37-.371h-1.556a.35.35 0 0 0-.37.371v8.68c0 4.303 2.668 6.677 6.669 6.677zm21.935-.668l-3.409-4.896c2.001-.816 3.186-2.522 3.186-4.748 0-3.487-2.519-5.415-6.076-5.415H85.22a.35.35 0 0 0-.371.371V17.14a.35.35 0 0 0 .371.371h1.556a.35.35 0 0 0 .37-.371v-4.377h2.742.741l3.112 4.599c.074.148.296.223.445.223h1.927c.297 0 .445-.148.222-.445l.074-.074zm-6.521-6.38h-2.742V4.009h2.816c2.223 0 3.853 1.113 3.853 3.413 0 2.003-1.556 3.338-4.002 3.338l.074-.074zm22.824-8.68h-1.556a.35.35 0 0 0-.371.371v11.128L101.153 2.08c-.148-.148-.297-.223-.445-.223h-.741a.35.35 0 0 0-.371.371V17.14a.35.35 0 0 0 .371.371h1.556a.35.35 0 0 0 .371-.371V6.086l9.708 11.424c.148.148.296.223.444.223h.741a.35.35 0 0 0 .371-.371V2.451a.35.35 0 0 0-.371-.371l-.074-.074zm4.817 15.505h1.556a.35.35 0 0 0 .371-.371V2.377a.35.35 0 0 0-.371-.371h-1.556a.35.35 0 0 0-.371.371V17.14a.35.35 0 0 0 .371.371zm16.673-15.505h-12.079c-.222 0-.37.148-.37.371v1.261c0 .223.148.371.37.371h4.891V17.14a.35.35 0 0 0 .371.371h1.556a.35.35 0 0 0 .371-.371V4.009h4.816a.35.35 0 0 0 .371-.371V2.377a.35.35 0 0 0-.371-.371h.074zm9.115 15.727c3.928 0 6.596-2.374 6.596-6.677v-8.68a.35.35 0 0 0-.371-.371h-1.556a.35.35 0 0 0-.371.371v8.828c0 2.522-1.482 4.377-4.298 4.377s-4.372-1.855-4.372-4.377V2.377c0-.223-.148-.371-.37-.371h-1.557c-.222 0-.37.148-.37.371v8.68c0 4.303 2.668 6.677 6.669 6.677zm21.935-.668l-3.408-4.896c2-.816 3.186-2.522 3.186-4.748 0-3.487-2.52-5.415-6.077-5.415h-4.89a.35.35 0 0 0-.371.371V17.14a.35.35 0 0 0 .371.371h1.556c.222 0 .37-.148.37-.371v-4.377h2.742.741l3.113 4.599c.074.148.296.223.444.223h1.927c.296 0 .445-.148.222-.445l.074-.074zm-6.521-6.38h-2.742V4.009h2.816c2.223 0 3.854 1.113 3.854 3.413 0 2.003-1.557 3.338-4.002 3.338l.074-.074zm19.712 4.822h-7.707v-4.822h6.669a.35.35 0 0 0 .371-.371v-1.26a.35.35 0 0 0-.371-.371h-6.669V4.083h7.633c.222 0 .37-.148.37-.371V2.451c0-.223-.148-.371-.37-.371h-9.56c-.222 0-.37.148-.37.371v14.763c0 .223.148.371.37.371h9.634c.222 0 .37-.148.37-.371v-1.261c0-.223-.148-.371-.37-.371v-.074zM67.213 27.674l-1.037-.519c-.222-.074-.37 0-.445.223-.297.742-.963 1.855-1.853 2.819l-3.631-3.561c2.297-1.113 3.409-2.596 3.409-4.377 0-2.151-1.704-3.561-4.076-3.561-2.445 0-4.372 1.484-4.372 3.858 0 1.261.593 2.374 1.704 3.635-1.704.89-2.816 2.226-2.816 4.154 0 2.596 2.075 4.303 5.039 4.303 1.779 0 3.409-.593 4.594-1.706l1.779 1.706c.148.148.297.222.519 0l.889-.964c.222-.223.148-.371 0-.519l-1.704-1.632c1.186-1.261 1.778-2.448 2.149-3.264.074-.223 0-.371-.222-.519l.074-.074zm-7.485-7.27c1.186 0 2.075.742 2.075 1.929 0 1.113-.963 2.151-2.816 2.967-1.111-1.113-1.556-1.855-1.556-2.745 0-1.261.963-2.151 2.297-2.151zm-.37 12.315c-1.704 0-2.964-.964-2.964-2.522 0-1.187.741-2.151 1.927-2.745l4.15 4.006c-.889.816-1.927 1.187-3.112 1.187v.074zm30.309 2.225l-3.335-4.896c2.001-.816 3.186-2.522 3.186-4.748 0-3.487-2.445-5.416-6.002-5.416h-4.817a.35.35 0 0 0-.37.371v14.763a.35.35 0 0 0 .37.371h1.556a.35.35 0 0 0 .37-.371v-4.377h2.742.741l3.038 4.599c.074.148.296.223.445.223h1.853c.296 0 .445-.148.222-.445v-.074zm-6.373-6.38h-2.668v-6.677h2.816c2.223 0 3.853 1.113 3.853 3.413 0 2.003-1.556 3.338-3.928 3.338l-.074-.074zm22.01 4.822H97.67v-4.822h6.595a.35.35 0 0 0 .371-.371v-1.261a.35.35 0 0 0-.371-.371H97.67v-4.599h7.558a.35.35 0 0 0 .371-.371V20.33a.35.35 0 0 0-.371-.371h-9.411a.35.35 0 0 0-.371.371v14.763a.35.35 0 0 0 .371.371h9.486c.222 0 .37-.148.37-.371v-1.261a.35.35 0 0 0-.37-.371v-.074zm11.263-13.502h-4.816a.35.35 0 0 0-.371.371v14.763a.35.35 0 0 0 .371.371h1.556c.222 0 .37-.148.37-.371v-4.377h2.89c3.557 0 6.151-1.929 6.151-5.341s-2.519-5.416-6.002-5.416h-.149zm-.074 8.68h-2.816v-6.677h2.816c2.298 0 3.854 1.335 3.854 3.338s-1.482 3.338-3.854 3.338zm23.047 6.454l-6.225-14.837c-.074-.223-.222-.297-.445-.297h-1.037c-.222 0-.371.074-.445.297l-6.224 14.837c-.075.223 0 .445.296.445h1.63c.223 0 .371-.074.445-.297l1.186-2.967h7.336l1.186 2.967c.074.148.222.297.444.297h1.631c.296 0 .37-.148.296-.445h-.074zm-7.188-11.944l2.89 7.122h-5.78l2.89-7.122zM144.8 35.389h1.556a.35.35 0 0 0 .371-.371V20.255a.35.35 0 0 0-.371-.371H144.8c-.222 0-.37.148-.37.371v14.763c0 .223.148.371.37.371zm19.86-.445l-3.334-4.896c2-.816 3.186-2.522 3.186-4.748 0-3.487-2.445-5.416-6.002-5.416h-4.817a.35.35 0 0 0-.371.371v14.763a.35.35 0 0 0 .371.371h1.556a.35.35 0 0 0 .371-.371v-4.377h2.741.741l3.039 4.599c.074.148.296.223.444.223h1.853c.296 0 .445-.148.222-.445v-.074zm-6.373-6.38h-2.667v-6.677h2.816c2.223 0 3.853 1.113 3.853 3.413 0 2.003-1.556 3.338-3.928 3.338l-.074-.074zm16.526 6.973c2.964 0 5.261-1.706 5.261-4.599 0-2.745-1.778-3.932-4.743-4.674-2.149-.593-3.26-1.113-3.26-2.448 0-1.409 1.185-2.151 2.89-2.151 1.482 0 2.519.297 3.483.964.222.148.37.074.519-.074l.666-1.113c.075-.148.075-.371-.074-.519-1.037-.742-2.519-1.261-4.594-1.261-3.038 0-5.187 1.781-5.187 4.303s1.778 3.635 4.594 4.377c2.445.593 3.409 1.335 3.409 2.819 0 1.558-1.26 2.374-2.964 2.374-1.557 0-2.965-.519-4.224-1.335-.223-.148-.371-.074-.519.074l-.741 1.187c-.148.222-.074.445.074.519 1.408.964 3.187 1.484 5.336 1.484l.074.074z"/></g><path fill-rule="evenodd" d="M54.17 37.095h125.756v1.039H54.17v-1.039z" fill="#9c1311"/><path d="M54.689 45.923v-5.267h3.557v.593H55.43v1.632h2.445v.593H55.43v2.374h-.667l-.074.074zm8.374-5.267h.667v3.042c0 .519-.074.964-.148 1.261-.148.297-.297.593-.667.742-.296.223-.741.297-1.186.297-.519 0-.889-.074-1.186-.222s-.519-.445-.667-.742-.222-.742-.222-1.335v-3.042h.667v3.042c0 .445.074.816.148 1.039s.222.371.445.519.445.148.741.148c.519 0 .889-.148 1.112-.371s.296-.668.296-1.335v-3.042zm2.371 5.267v-5.267h2.297c.445 0 .815.074 1.037.148s.445.297.593.519.222.519.222.816c0 .371-.148.668-.37.964-.222.223-.593.445-1.112.519.148.074.297.148.445.297.222.223.37.445.593.668l.889 1.41h-.889l-.667-1.113c-.222-.297-.371-.594-.519-.742s-.222-.297-.371-.371c-.074-.074-.222-.148-.296-.148h-.371-.815v2.3h-.667zm.667-2.967h1.482c.296 0 .593 0 .741-.074s.297-.148.371-.297.148-.297.148-.445c0-.223-.074-.445-.296-.593-.148-.148-.445-.223-.815-.223h-1.63v1.706-.074zm5.039 2.967v-5.267h.741l2.742 4.154v-4.154h.667v5.267h-.741l-2.742-4.154v4.154h-.667zm5.928 0v-5.267h.667v5.267h-.667zm3.705 0v-4.674H79.07v-.593h4.15v.593h-1.704v4.674h-.667-.074zm7.04-5.267h.667v3.042c0 .519-.074.964-.148 1.261-.148.297-.296.593-.667.742-.296.223-.741.297-1.186.297-.519 0-.889-.074-1.186-.222s-.519-.445-.667-.742-.222-.742-.222-1.335v-3.042h.667v3.042c0 .445.074.816.148 1.039s.222.371.445.519.445.148.741.148c.519 0 .889-.148 1.111-.371s.296-.668.296-1.335v-3.042zm2.371 5.267v-5.267h2.297c.445 0 .815.074 1.037.148s.445.297.593.519.222.519.222.816c0 .371-.148.668-.371.964-.222.223-.593.445-1.112.519a1.55 1.55 0 0 1 .445.297c.222.223.37.445.593.668l.889 1.41h-.889l-.667-1.113c-.222-.297-.371-.594-.519-.742s-.222-.297-.371-.371c-.074-.074-.222-.148-.296-.148h-.37-.815v2.3h-.667zm.667-2.967h1.482c.296 0 .593 0 .741-.074s.296-.148.37-.297.148-.297.148-.445c0-.223-.074-.445-.296-.593-.148-.148-.445-.223-.815-.223h-1.63v1.706-.074zm5.039 2.967v-5.267h3.779v.593h-3.112v1.632h2.89v.593h-2.89v1.78h3.186v.593h-3.928l.074.074zm7.337 0v-5.267h3.779v.593h-3.112v1.632h2.89v.593h-2.89v1.78h3.186v.593h-3.927l.074.074zm4.816 0l2.001-2.745-1.778-2.522h.815l.963 1.335c.223.297.371.519.445.668.148-.148.222-.371.445-.594l1.037-1.409h.741l-1.853 2.522 1.927 2.745h-.815l-1.334-1.855c-.074-.074-.148-.222-.222-.297-.148.148-.222.297-.222.371l-1.334 1.855h-.816v-.074zm5.929 0v-5.267h2.001c.37 0 .593 0 .815.074l.667.223a3.22 3.22 0 0 1 .444.519c.075.222.149.445.149.742 0 .445-.149.816-.445 1.113s-.815.445-1.556.445h-1.334v2.151h-.667-.074zm.667-2.745h1.334c.444 0 .741-.074.963-.222s.296-.371.296-.742c0-.222-.074-.371-.148-.593-.074-.148-.222-.297-.444-.297-.149 0-.297-.074-.667-.074h-1.334v1.855.074zm4.668 2.745v-5.267h3.78v.593h-3.113v1.632h2.89v.593h-2.89v1.78h3.187v.593h-3.928l.074.074zm5.336 0v-5.267h2.297c.445 0 .815.074 1.038.148s.444.297.592.519.223.519.223.816c0 .371-.148.668-.371.964-.222.223-.593.445-1.111.519.148.074.296.148.444.297.223.223.371.445.593.668l.889 1.41h-.889l-.667-1.113c-.222-.297-.37-.594-.519-.742s-.222-.297-.37-.371c-.074-.074-.222-.148-.296-.148h-.371-.815v2.3h-.667zm.667-2.967h1.482c.296 0 .593 0 .741-.074s.296-.148.371-.297.148-.297.148-.445c0-.223-.074-.445-.297-.593-.148-.148-.444-.223-.815-.223h-1.63v1.706-.074zm6.225 2.967v-4.674h-1.705v-.593h4.15v.593h-1.704v4.674h-.667-.074zm3.408-1.706l.667-.074c0 .297.075.445.223.668a3.22 3.22 0 0 0 .518.445c.223.074.519.148.816.148s.518-.074.667-.148c.222-.074.37-.223.444-.297.074-.148.148-.297.148-.445s-.074-.297-.148-.445-.222-.222-.444-.297c-.149-.074-.445-.148-.964-.223l-1.037-.297c-.223-.148-.445-.297-.593-.519s-.148-.445-.148-.668c0-.297.074-.519.222-.742s.371-.371.667-.519.593-.148.963-.148.741.074 1.038.223.518.297.667.519.222.519.222.816l-.667.074c0-.297-.148-.593-.37-.742s-.519-.223-.89-.223c-.444 0-.741.074-.889.223-.222.148-.296.371-.296.593s.074.371.222.445c.148.148.445.223 1.037.371s.964.222 1.186.371c.296.148.519.297.667.519s.222.445.222.742-.074.519-.222.816a1.75 1.75 0 0 1-.667.593c-.296.148-.667.223-1.037.223-.445 0-.89-.074-1.186-.223s-.593-.371-.741-.593c-.148-.297-.297-.593-.297-.964v-.223zm10.449 1.039c-.222.222-.444.445-.667.519-.222.148-.518.148-.815.148-.519 0-.963-.148-1.26-.519-.222-.297-.37-.593-.37-.964a1.43 1.43 0 0 1 .296-.89c.223-.297.519-.519.964-.668-.223-.297-.371-.519-.445-.668s-.148-.297-.148-.519c0-.297.148-.593.37-.816s.593-.371.964-.371.667.074.889.297.37.519.37.816c0 .519-.296.964-.963 1.261l.963 1.187c.075-.222.223-.445.223-.742l.667.148a8.78 8.78 0 0 1-.445 1.113 4.25 4.25 0 0 0 .815.816l-.444.519c-.223-.148-.519-.445-.816-.742l-.148.074zm-1.334-2.745c.297-.148.445-.297.519-.445s.148-.297.148-.445-.074-.297-.148-.445c-.148-.148-.222-.148-.445-.148-.148 0-.296.074-.444.148-.148.148-.148.223-.148.445 0 .074 0 .148.074.223s.074.222.222.297l.296.371h-.074zm.89 2.226l-1.186-1.484c-.371.223-.593.371-.667.593-.148.148-.148.371-.148.519 0 .222.074.445.222.668s.371.371.741.371c.222 0 .371-.074.593-.148.222-.148.37-.297.519-.445l-.074-.074zm4.816 1.113v-5.267h1.038l1.26 3.709c.148.371.222.594.222.742l.296-.816 1.26-3.635h.889v5.267h-.667v-4.377l-1.556 4.377h-.593l-1.482-4.451v4.451h-.667zm6.596 0v-5.267h3.779v.593h-3.112v1.632h2.89v.593h-2.89v1.78h3.186v.594h-3.927l.074.074zm5.335 0v-5.267h1.779c.37 0 .741 0 .963.074.296.074.519.223.741.371.297.223.519.519.593.89.148.371.222.816.222 1.261 0 .371-.074.742-.148 1.039s-.222.593-.37.742c-.149.222-.297.371-.445.445-.148.148-.371.223-.593.297s-.519.074-.815.074h-1.853l-.074.074zm.667-.593h1.112c.37 0 .593 0 .815-.074s.37-.148.444-.297c.149-.148.297-.371.371-.668s.148-.593.148-1.039c0-.519-.074-.964-.296-1.261-.148-.297-.371-.519-.667-.593-.148-.074-.519-.074-.889-.074h-1.112v4.006h.074zm5.187.593v-5.267h.667v5.267h-.667zm6.151-1.855l.667.148c-.148.593-.37 1.039-.815 1.335-.371.297-.815.445-1.408.445s-1.038-.148-1.408-.371-.593-.593-.815-.964c-.148-.445-.297-.89-.297-1.41s.075-1.039.297-1.409.519-.742.889-.964.815-.297 1.26-.297c.519 0 .963.148 1.334.371.37.297.593.668.741 1.113l-.667.148c-.148-.371-.297-.668-.519-.816s-.519-.297-.889-.297-.741.074-1.038.297-.444.445-.592.816c-.075.297-.149.668-.149 1.039 0 .445.074.816.223 1.187s.296.593.592.742.593.223.89.223c.37 0 .741-.148.963-.371.297-.223.445-.593.519-.964h.222zm1.853.148l.667-.074c0 .297.074.445.222.668.148.148.296.297.519.445.222.074.518.148.815.148a1.48 1.48 0 0 0 .667-.148c.222-.074.37-.222.444-.297.075-.148.149-.297.149-.445s-.074-.297-.149-.445-.222-.223-.444-.297c-.148-.074-.445-.148-.964-.222l-1.037-.297c-.222-.148-.445-.297-.593-.519s-.148-.445-.148-.668c0-.297.074-.519.222-.742s.371-.371.667-.519.593-.148.964-.148.741.074 1.037.222.519.297.667.519.222.519.222.816l-.667.074c0-.297-.148-.593-.37-.742s-.519-.223-.889-.223c-.445 0-.741.074-.89.223-.222.148-.296.371-.296.593s.074.371.222.445c.148.148.445.223 1.038.371s.963.222 1.185.371c.297.148.519.297.667.519a1.25 1.25 0 0 1 .223.742c0 .297-.074.519-.223.816-.148.223-.37.445-.667.593s-.667.223-1.037.223c-.445 0-.889-.074-1.186-.223s-.593-.371-.741-.593c-.148-.297-.296-.593-.296-.964v-.223z" fill="#000"/></g><defs><clipPath id="A"><path fill="#fff" d="M0 0h180v46H0z"/></clipPath></defs></svg>